<svg xmlns="http://www.w3.org/2000/svg" viewBox="0 0 800 1000" preserveAspectRatio="xMidYMid slice"><rect width="800" height="1000" fill="#F3EFE8"/><circle cx="400.0" cy="560.0" r="288.0" fill="#E8E1D5"/><ellipse cx="400.0" cy="690.0" rx="240.0" ry="14" fill="#111" opacity=".06"/><g transform="translate(0,90) scale(1.0,1.0)"><path d="M180,640 C175,600 178,560 195,530 C230,528 300,540 360,556.0 C420,572.0 470,560 520,548 C585,540 630,575 640,610 C645,630 630,642 600,644 L200,646 C188,646.0 185,644 180,640 Z" fill="#222222" stroke="#0d0d0d" stroke-width="2"/><path d="M300,548 C360,470 430,470 470,556" fill="none" stroke="#0d0d0d" stroke-width="10" stroke-linecap="round" opacity=".9"/><path d="M200,532 C240,470 300,470 330,552" fill="none" stroke="#0d0d0d" stroke-width="8" stroke-linecap="round" opacity=".7"/><path d="M178,640 " /><path d="M200,646 L600,646" stroke="#0d0d0d" stroke-width="5" opacity=".6"/></g><text x="760" y="60" text-anchor="end" font-family="Helvetica,Arial,sans-serif" font-size="18" letter-spacing="6" fill="#6E6A66">DEMO</text></svg>